<?xml version="1.0" encoding="UTF-8"?>
<!DOCTYPE svg PUBLIC "-//W3C//DTD SVG 1.1//EN" "http://www.w3.org/Graphics/SVG/1.1/DTD/svg11.dtd">
<!-- Creator: CorelDRAW Home & Student 2018 -->
<svg xmlns="http://www.w3.org/2000/svg" xml:space="preserve" width="50mm" height="50mm" version="1.1" style="shape-rendering:geometricPrecision; text-rendering:geometricPrecision; image-rendering:optimizeQuality; fill-rule:evenodd; clip-rule:evenodd"
viewBox="0 0 45000 45000"
 xmlns:xlink="http://www.w3.org/1999/xlink">
 <defs>
  <style type="text/css">
   <![CDATA[
    .str1 {stroke:black;stroke-width:150;stroke-miterlimit:22.9256}
    .str0 {stroke:black;stroke-width:20;stroke-miterlimit:22.9256}
    .fil1 {fill:#FFED00}
    .fil0 {fill:#393185}
    .fil2 {fill:black;fill-rule:nonzero}
   ]]>
  </style>
 </defs>
 <g id="Capa_x0020_1">
  <metadata id="CorelCorpID_0Corel-Layer"/>
  <circle class="fil0 str0" transform="matrix(6.32185 -3.64992 3.64992 6.32185 22072.2 23446.2)" r="1932.62"/>
 </g>
 <g id="Copia_x0020_de_x0020_Copia_x0020_de_x0020_Copia_x0020_de_x0020_Capa_x0020_4">
  <metadata id="CorelCorpID_1Corel-Layer"/>
  <g id="_668935088">
   <polygon class="fil1 str1" points="22072.23,9524.87 24905.53,18539.07 34128.48,16485.55 27738.52,23446.24 34128.48,30406.93 24905.53,28353.41 22072.23,37367.61 19238.93,28353.41 10015.98,30406.93 16405.94,23446.24 10015.98,16485.55 19238.93,18539.07 "/>
   <polygon class="fil1 str1" points="22072.23,2377.72 22780.55,4631.28 25086.29,4117.9 23488.8,5858.07 25086.29,7598.24 22780.55,7084.86 22072.23,9338.41 21363.9,7084.86 19058.17,7598.24 20655.66,5858.07 19058.17,4117.9 21363.9,4631.28 "/>
   <polygon class="fil1 str1" points="30867.74,4731.63 31576.06,6985.18 33881.8,6471.8 32284.31,8211.98 33881.8,9952.15 31576.06,9438.77 30867.74,11692.32 30159.41,9438.77 27853.68,9952.15 29451.17,8211.98 27853.68,6471.8 30159.41,6985.18 "/>
   <polygon class="fil1 str1" points="37306.57,11170.39 38014.89,13423.94 40320.63,12910.56 38723.14,14650.73 40320.63,16390.9 38014.89,15877.52 37306.57,18131.07 36598.24,15877.52 34292.51,16390.9 35889.99,14650.73 34292.51,12910.56 36598.24,13423.94 "/>
   <polygon class="fil1 str1" points="39660.4,19965.9 40368.73,22219.45 42674.46,21706.07 41076.97,23446.24 42674.46,25186.41 40368.73,24673.03 39660.4,26926.58 38952.08,24673.03 36646.34,25186.41 38243.83,23446.24 36646.34,21706.07 38952.08,22219.45 "/>
   <polygon class="fil1 str1" points="37306.57,28761.48 38014.89,31015.03 40320.63,30501.65 38723.14,32241.82 40320.63,33981.99 38014.89,33468.62 37306.57,35722.17 36598.24,33468.62 34292.51,33981.99 35889.99,32241.82 34292.51,30501.65 36598.24,31015.03 "/>
   <polygon class="fil1 str1" points="30867.74,35200.31 31576.06,37453.86 33881.8,36940.48 32284.31,38680.65 33881.8,40420.82 31576.06,39907.44 30867.74,42160.99 30159.41,39907.44 27853.68,40420.82 29451.17,38680.65 27853.68,36940.48 30159.41,37453.86 "/>
   <polygon class="fil1 str1" points="22072.23,37554.07 22780.55,39807.62 25086.29,39294.24 23488.8,41034.41 25086.29,42774.58 22780.55,42261.21 22072.23,44514.76 21363.9,42261.21 19058.17,42774.58 20655.66,41034.41 19058.17,39294.24 21363.9,39807.62 "/>
   <polygon class="fil1 str1" points="13276.65,35200.31 13984.97,37453.86 16290.71,36940.48 14693.22,38680.65 16290.71,40420.82 13984.97,39907.44 13276.65,42160.99 12568.32,39907.44 10262.58,40420.82 11860.07,38680.65 10262.58,36940.48 12568.32,37453.86 "/>
   <polygon class="fil1 str1" points="6837.89,28761.48 7546.22,31015.03 9851.95,30501.65 8254.46,32241.82 9851.95,33981.99 7546.22,33468.62 6837.89,35722.17 6129.57,33468.62 3823.83,33981.99 5421.32,32241.82 3823.83,30501.65 6129.57,31015.03 "/>
   <polygon class="fil1 str1" points="4484.06,19965.9 5192.38,22219.45 7498.12,21706.07 5900.63,23446.24 7498.12,25186.41 5192.38,24673.03 4484.06,26926.58 3775.73,24673.03 1469.99,25186.41 3067.48,23446.24 1469.99,21706.07 3775.73,22219.45 "/>
   <polygon class="fil1 str1" points="6837.89,11170.39 7546.22,13423.94 9851.95,12910.56 8254.46,14650.73 9851.95,16390.9 7546.22,15877.52 6837.89,18131.07 6129.57,15877.52 3823.83,16390.9 5421.32,14650.73 3823.83,12910.56 6129.57,13423.94 "/>
   <polygon class="fil1 str1" points="13276.65,4731.63 13984.97,6985.18 16290.71,6471.8 14693.22,8211.98 16290.71,9952.15 13984.97,9438.77 13276.65,11692.32 12568.32,9438.77 10262.58,9952.15 11860.07,8211.98 10262.58,6471.8 12568.32,6985.18 "/>
  </g>
 </g>
 <g id="Capa_x0020_2">
  <metadata id="CorelCorpID_2Corel-Layer"/>
  <path class="fil2" d="M13498.85 27149.78l-63.5 -110.53c281.63,-148.16 500.94,-266.94 656.75,-357.48l496.83 -296.92c149.35,-85.84 276.35,-138.18 381.01,-156.41 105.24,-17.63 208.72,0.01 311.61,53.52 102.31,53.5 188.15,140.52 257.54,260.46 111.7,193.45 137.58,389.82 78.78,590.32 -59.39,200.5 -202.85,366.89 -430.98,498.59 -70.55,40.57 -163.45,82.9 -278.11,127 155.81,265.17 245.78,418.63 269.88,460.38l61.15 109.94c55.26,95.25 95.84,148.17 122.89,157.58 44.09,17.05 151.1,-10.59 319.85,-82.9 19.4,-8.82 48.21,-20.58 87.01,-36.45l63.5 110.52c-291.04,153.46 -499.18,266.36 -625.59,339.26 -146.4,84.67 -329.26,197.56 -549.75,339.26l-64.09 -109.95c157.58,-132.29 241.07,-212.85 251.06,-242.83 10,-29.4 2.95,-69.97 -21.16,-120.53 -24.1,-51.16 -176.39,-322.8 -456.26,-814.91l-262.82 -450.98c-105.84,-181.68 -171.1,-286.34 -195.2,-314.56 -24.7,-28.22 -50.56,-44.09 -78.79,-46.44 -35.87,-2.95 -122.3,19.98 -258.71,68.2 -16.46,6.46 -40.56,15.29 -72.9,25.86zm1312.34 439.81c64.08,-28.81 118.18,-56.46 161.68,-81.74 115.24,-66.44 185.21,-153.45 208.73,-261.63 24.11,-107.6 -6.46,-235.78 -92.31,-383.95 -75.84,-131.7 -165.22,-212.25 -267.52,-243.42 -102.9,-30.56 -212.85,-12.34 -330.43,55.27 -44.7,25.88 -94.08,61.16 -147.59,105.24l467.44 810.23z"/>
  <path id="1" class="fil2" d="M15407.14 26047.94l-64.09 -109.95c261.05,-136.4 462.72,-245.17 605.02,-327.49 145.22,-83.49 335.14,-201.08 570.91,-351.6l63.5 110.54c-186.98,149.34 -286.93,233.41 -299.86,252.82 -20,34.11 -10,85.84 30.57,155.22l216.96 386.29 716.14 1241.19 543.27 -313.38c89.38,-51.74 145.82,-92.31 168.75,-121.71 30.58,-40.57 52.91,-93.48 65.26,-158.75 12.35,-65.85 20.59,-205.78 24.11,-419.81l134.06 -77.6c39.98,222.24 91.13,462.13 154.63,718.49 -429.21,233.42 -783.75,430.39 -1064.21,592.67 -229.9,132.29 -465.08,275.75 -706.74,429.8l-63.5 -110.54c156.99,-137 240.48,-216.96 251.06,-240.48 10.01,-22.93 7.65,-53.5 -8.22,-91.73 -15.88,-37.62 -151.7,-277.51 -406.29,-719.07l-315.15 -542.1 -55.26 -95.25c-91.72,-159.34 -152.29,-251.65 -181.68,-276.93 -21.76,-19.41 -44.69,-28.23 -69.97,-26.46 -24.7,1.76 -127.59,33.51 -309.27,95.83z"/>
  <path id="2" class="fil2" d="M19914.37 26120.85l-63.5 -110.54c107.59,-91.13 166.98,-149.34 177.56,-174.03 11.17,-24.7 9.41,-49.39 -4.11,-72.91 -8.23,-14.11 -20.58,-28.23 -36.46,-42.92 -39.98,-32.34 -164.04,-127.59 -372.18,-286.34 -142.28,78.2 -259.88,144.05 -353.36,198.15 -76.44,44.1 -203.44,119.35 -381.01,225.77 40.58,324.55 67.63,499.19 81.73,523.88 14.12,24.1 32.34,37.05 54.68,39.39 22.35,1.76 103.48,-21.17 242.24,-69.37l64.09 109.94c-131.7,61.74 -255.18,125.24 -369.23,191.09 -123.48,71.73 -245.78,149.34 -366.3,234.01l-64.1 -110.54c78.79,-70.56 128.18,-127.58 148.17,-171.1 13.52,-29.4 20.58,-65.26 21.17,-107.6 2.93,-85.25 -21.76,-394.52 -72.32,-928.98 -32.34,-338.07 -86.43,-834.32 -162.28,-1489.31l120.53 -69.97c227.55,180.51 670.87,505.65 1329.97,976.62 366.31,262.23 579.15,408.04 639.12,438.61 41.16,21.17 77.03,32.34 107.01,33.52 29.99,1.17 111.71,-16.46 245.19,-54.09l63.49 110.53c-182.27,90.54 -348.66,179.92 -499.77,266.94 -149.35,85.84 -332.79,199.31 -550.33,339.25zm-1163 -1352.9l101.14 877.83 296.33 -168.75c70.55,-40.57 171.68,-99.95 303.39,-176.97l-700.86 -532.11z"/>
  <path id="3" class="fil2" d="M19819.9 23500.59l-63.5 -110.53c142.29,-67.62 272.23,-135.23 389.83,-203.44 118.17,-68.2 254.58,-154.05 408.04,-257.53 215.78,93.49 840.78,333.38 1876.19,720.85l-474.49 -807.86c-119.35,-195.21 -190.5,-301.04 -214.02,-316.92 -23.52,-16.46 -50.57,-24.11 -81.72,-22.93 -31.16,1.77 -124.06,34.1 -279.87,97.01l-63.5 -109.95c166.39,-81.72 309.26,-156.98 428.63,-225.77 115.23,-66.44 259.28,-156.98 431.55,-271.64l64.09 110.53c-27.63,24.11 -48.21,41.16 -61.74,51.74 -107,85.85 -165.8,145.82 -176.38,180.51 -10.59,34.69 1.17,86.43 35.86,155.22 70.56,144.64 231.07,433.92 481.55,867.84 160.51,278.1 349.83,593.25 567.38,944.86 -38.8,41.15 -75.25,84.08 -110.54,129.34l-976.6 -386.29 -1468.15 -550.92 413.93 706.15 409.81 682.04c32.92,49.97 56.44,79.96 71.14,89.37 14.7,9.4 31.16,14.11 48.21,14.7 29.4,0 109.96,-22.93 242.25,-69.97 15.28,-6.47 38.22,-14.11 69.38,-24.7l64.08 110.54c-177.56,88.19 -318.09,161.69 -421.57,221.66 -88.19,50.57 -235.18,142.88 -440.97,276.35l-63.5 -110.54c27.05,-23.52 48.22,-41.75 62.33,-54.09 104.06,-83.49 161.68,-140.53 174.03,-169.92 7.65,-18.82 8.82,-40.58 2.94,-64.09 -5.88,-24.11 -84.66,-175.8 -236.95,-455.09 -219.3,-405.11 -411.57,-750.24 -576.2,-1035.99 -55.27,-95.25 -95.84,-153.46 -121.71,-174.03 -25.87,-21.17 -56.45,-31.17 -92.31,-30.58 -35.28,0.59 -113.48,22.34 -234.01,65.85 -18.81,6.46 -46.45,15.87 -83.49,28.22z"/>
  <path id="4" class="fil2" d="M25257.06 22489l158.75 99.37c-106.42,212.85 -218.72,385.12 -337.49,516.23 -118.18,131.7 -256.94,242.83 -416.28,335.14 -335.73,194.02 -655.58,251.06 -958.38,170.51 -302.8,-80.55 -547.98,-282.81 -735.54,-606.78 -198.15,-343.96 -249.89,-683.8 -154.05,-1018.94 95.26,-335.14 334.56,-612.66 717.32,-833.73 122.3,-70.56 246.35,-129.35 371.59,-175.81 124.65,-46.44 286.34,-91.71 485.07,-135.81 31.16,68.2 67.03,136.99 107.59,206.37 69.38,120.53 161.7,263.41 276.94,428.63l-164.05 94.66c-159.93,-162.28 -257.52,-255.18 -292.21,-278.69 -79.96,-53.51 -176.98,-81.73 -290.45,-84.67 -114.07,-2.94 -242.84,36.45 -385.71,119.35 -217.54,125.83 -347.49,289.28 -388.64,490.96 -51.16,242.82 5.29,505.06 168.15,787.87 168.75,292.21 368.66,473.31 599.72,543.86 230.49,69.97 466.85,35.28 708.5,-104.07 215.2,-124.06 391.59,-308.68 529.17,-554.45z"/>
  <path id="5" class="fil2" d="M24605.72 20737.17l-63.51 -110.53c186.39,-92.91 372.78,-192.86 558.57,-300.46 194.03,-111.71 382.77,-228.13 566.21,-348.66l63.5 110.54c-135.82,112.88 -214.02,182.85 -233.42,209.31 -20,27.05 -28.23,55.27 -24.7,84.67 2.94,29.98 39.99,105.83 109.95,226.96l60.56 102.29 219.9 383.95c144.64,-76.44 296.93,-161.1 458.02,-254 145.23,-84.08 270.46,-159.92 376.3,-227.54l-308.68 -527.41c-54.68,-94.66 -94.66,-150.51 -119.35,-168.15 -24.7,-17.65 -55.87,-23.52 -93.5,-17.64 -29.39,4.11 -124.65,35.86 -285.15,95.25l-63.5 -110.54c198.14,-99.95 377.47,-196.38 538.57,-289.28 151.11,-87.6 346.9,-207.55 586.2,-359.83l63.5 109.95 -208.14 188.15c-21.75,21.75 -34.69,40.57 -39.39,56.44 -4.7,15.87 -5.3,32.93 -1.77,50.56 8.82,38.81 62.33,145.23 160.51,319.27 156.4,275.76 258.71,455.09 306.93,538.57 196.37,340.44 343.36,589.14 441.55,747.9 32.93,52.32 67.03,82.9 102.32,91.13 35.27,7.63 125.23,-15.87 269.28,-71.15l63.5 -24.69 63.5 110.54c-215.79,109.95 -406.29,212.26 -570.33,307.5 -162.28,93.49 -346.9,207.55 -554.45,341.61l-63.5 -110.54 221.08 -195.2c24.11,-27.05 36.45,-54.69 37.04,-82.32 1.17,-27.04 -19.4,-77.02 -60.56,-148.75l-375.71 -660.28 -413.34 231.06c-19.4,10.59 -159.34,94.07 -420.39,250.47 235.77,406.29 379.23,647.36 429.8,724.38 28.22,41.16 58.8,65.26 92.31,71.73 34.1,7.05 120.53,-17.06 259.88,-71.74 15.29,-6.46 38.22,-15.28 69.96,-27.04l64.1 110.53c-227.55,116.42 -428.63,225.2 -603.25,326.33 -179.92,104.07 -353.96,211.66 -521.53,323.38l-64.09 -110.54c121.71,-106.42 194.62,-172.86 217.55,-199.32 22.93,-26.46 34.69,-54.09 34.69,-82.31 0,-28.81 -20.58,-79.38 -62.91,-152.29l-329.85 -585.02c-175.21,-303.39 -326.32,-561.51 -453.32,-774.34 -61.74,-105.26 -108.18,-166.41 -139.94,-184.04 -18.22,-11.77 -41.74,-15.88 -69.96,-12.93 -28.23,2.94 -125.24,34.09 -291.04,94.07z"/>
  <path id="6" class="fil2" d="M28121.41 18560.23l63.5 110.54 -51.16 39.4c-122.88,92.3 -190.5,158.16 -203.43,196.96 -12.35,39.39 1.18,92.9 40.57,161.69l31.16 53.51 285.75 501.54 331.03 570.31 169.92 290.46c49.39,85.25 84.08,136.41 105.24,153.46 21.17,17.05 45.28,25.28 72.91,24.11 46.45,-1.78 130.53,-25.87 252.24,-72.32 13.52,-5.3 33.51,-12.94 60.56,-22.93l63.5 110.53c-209.91,106.43 -392.76,204.61 -547.98,293.98 -147,85.26 -338.67,203.44 -575.03,354.55l-64.09 -110.54c138.76,-118.77 214.02,-185.21 225.19,-199.33 17.63,-22.34 27.64,-45.27 29.99,-69.38 1.76,-31.15 -17.64,-82.89 -57.03,-154.04 -93.49,-165.81 -254.59,-447.44 -483.9,-844.32l-318.09 -540.34 -25.86 -44.68c-45.87,-79.96 -87.03,-124.06 -122.9,-134.05 -35.86,-9.41 -125.82,12.34 -269.87,66.44 -16.46,5.87 -40.57,13.52 -71.73,23.51l-64.09 -110.53c262.23,-136.4 456.85,-241.65 583.85,-315.15 136.4,-78.2 316.33,-189.33 539.75,-333.38zm-582.67 -546.8l41.75 27.63c-65.27,232.83 -123.48,479.19 -174.04,739.07l-131.11 75.85 -121.13 -620.3c101.72,-53.51 168.75,-89.37 201.67,-108.77 37.05,-21.17 97.61,-58.8 182.86,-113.48z"/>
  <path id="7" class="fil2" d="M29985.05 18291.83l-148.76 85.84c-143.46,-171.68 -266.92,-271.05 -371,-297.51 -104.65,-27.04 -214.02,-7.05 -328.08,58.8 -102.31,59.38 -166.98,131.7 -193.44,218.14 -26.46,86.43 -15.88,170.5 31.74,252.82 42.93,74.08 107.61,125.23 194.63,154.63 87.6,29.98 256.34,32.93 506.24,8.24 249.29,-25.29 442.14,-10.59 577.96,44.09 136.41,54.68 247.53,156.4 333.37,304.57 103.49,179.32 126.42,375.12 69.38,587.37 -57.03,212.84 -235.18,405.69 -535.63,579.15 -107.6,61.73 -213.43,112.3 -318.09,151.69 -78.79,31.17 -182.26,59.97 -309.86,87.01 -84.07,-184.61 -175.2,-362.18 -273.4,-532.1l-57.62 -99.96 145.82 -84.07c152.28,175.79 275.16,281.04 369.83,315.74 126.41,47.03 256.35,32.93 388.64,-43.51 105.24,-61.16 171.68,-141.12 199.32,-240.48 27.05,-99.37 12.93,-197.55 -43.51,-295.16 -35.28,-61.73 -80.55,-108.78 -134.06,-141.11 -54.09,-32.93 -118.17,-53.51 -192.85,-61.74 -74.67,-8.82 -198.73,-5.28 -372.77,10 -268.69,22.34 -465.08,8.24 -590.31,-42.92 -124.06,-50.57 -222.25,-137.59 -293.98,-261.64 -105.84,-183.45 -125.82,-373.95 -59.97,-572.09 65.85,-198.73 225.77,-371.59 480.36,-518.59 169.33,-97.61 371.59,-171.09 606.78,-220.48 84.08,159.34 143.46,269.29 178.74,330.43 40.57,70.56 87.6,144.64 140.52,222.84z"/>
 </g>
</svg>
